<?xml version="1.0" encoding="UTF-8"?>
<svg id="Layer_2" data-name="Layer 2" xmlns="http://www.w3.org/2000/svg" viewBox="0 0 489.83 402.96">
  <defs>
    <style>
      .cls-1 {
        fill: #005798;
      }

      .cls-2 {
        fill: #fff;
        stroke: #491649;
        stroke-miterlimit: 10;
        stroke-width: 6px;
      }

      .cls-3 {
        fill: #0f2446;
      }

      .cls-4 {
        fill: #491649;
      }
    </style>
  </defs>
  <g id="Full_Logo" data-name="Full Logo">
    <g id="Light_Mode" data-name="Light Mode">
      <g id="Text">
        <path class="cls-1" d="M4,401.68v-57.6h25.6c2.61,0,5.03.43,7.24,1.28,2.21.85,4.12,2.04,5.72,3.56s2.85,3.33,3.76,5.44c.91,2.11,1.36,4.44,1.36,7,0,1.87-.44,3.64-1.32,5.32-.88,1.68-2.09,3.08-3.64,4.2,2.56,1.44,4.53,3.37,5.92,5.8,1.39,2.43,2.08,5,2.08,7.72s-.45,4.99-1.36,7.12c-.91,2.13-2.16,3.95-3.76,5.44-1.6,1.49-3.48,2.65-5.64,3.48-2.16.83-4.49,1.24-7,1.24H4ZM16.8,355.6v10.88h12.48c1.6,0,2.96-.52,4.08-1.56,1.12-1.04,1.68-2.36,1.68-3.96s-.56-2.89-1.68-3.88c-1.12-.99-2.48-1.48-4.08-1.48h-12.48ZM16.8,377.68v12.48h15.52c1.6,0,2.96-.63,4.08-1.88s1.68-2.68,1.68-4.28-.56-3.05-1.68-4.36c-1.12-1.31-2.48-1.96-4.08-1.96h-15.52Z"/>
        <path class="cls-1" d="M102,380.08c0,3.15-.63,6.11-1.88,8.88-1.25,2.77-2.96,5.2-5.12,7.28-2.16,2.08-4.68,3.72-7.56,4.92-2.88,1.2-5.97,1.8-9.28,1.8s-6.4-.6-9.28-1.8c-2.88-1.2-5.4-2.84-7.56-4.92-2.16-2.08-3.87-4.51-5.12-7.28-1.25-2.77-1.88-5.73-1.88-8.88s.63-6.11,1.88-8.88c1.25-2.77,2.96-5.2,5.12-7.28,2.16-2.08,4.68-3.72,7.56-4.92,2.88-1.2,5.97-1.8,9.28-1.8s6.4.6,9.28,1.8c2.88,1.2,5.4,2.84,7.56,4.92,2.16,2.08,3.87,4.51,5.12,7.28,1.25,2.77,1.88,5.73,1.88,8.88ZM90,380.08c0-1.65-.31-3.21-.92-4.68-.61-1.47-1.45-2.73-2.52-3.8-1.07-1.07-2.32-1.92-3.76-2.56s-2.99-.96-4.64-.96-3.2.32-4.64.96c-1.44.64-2.69,1.49-3.76,2.56s-1.91,2.33-2.52,3.8c-.61,1.47-.92,3.03-.92,4.68s.31,3.21.92,4.68c.61,1.47,1.45,2.73,2.52,3.8,1.07,1.07,2.32,1.92,3.76,2.56,1.44.64,2.99.96,4.64.96s3.2-.32,4.64-.96c1.44-.64,2.69-1.49,3.76-2.56,1.07-1.07,1.91-2.33,2.52-3.8.61-1.47.92-3.03.92-4.68Z"/>
        <path class="cls-1" d="M128.96,357.2c3.31,0,6.4.6,9.28,1.8,2.88,1.2,5.39,2.84,7.52,4.92,2.13,2.08,3.83,4.51,5.08,7.28,1.25,2.77,1.88,5.73,1.88,8.88v21.6h-11.2v-5.36c-1.39,2.03-3.17,3.64-5.36,4.84-2.19,1.2-4.59,1.8-7.2,1.8-3.25,0-6.33-.6-9.24-1.8-2.91-1.2-5.43-2.84-7.56-4.92-2.13-2.08-3.83-4.51-5.08-7.28-1.25-2.77-1.88-5.73-1.88-8.88s.63-6.11,1.88-8.88c1.25-2.77,2.95-5.2,5.08-7.28,2.13-2.08,4.65-3.72,7.56-4.92,2.91-1.2,5.99-1.8,9.24-1.8ZM129.2,392.08c1.65,0,3.21-.32,4.68-.96,1.47-.64,2.73-1.49,3.8-2.56,1.07-1.07,1.92-2.33,2.56-3.8.64-1.47.96-3.03.96-4.68s-.32-3.21-.96-4.68c-.64-1.47-1.49-2.73-2.56-3.8-1.07-1.07-2.33-1.92-3.8-2.56-1.47-.64-3.03-.96-4.68-.96s-3.21.32-4.68.96c-1.47.64-2.73,1.49-3.8,2.56-1.07,1.07-1.92,2.33-2.56,3.8s-.96,3.03-.96,4.68.32,3.21.96,4.68c.64,1.47,1.49,2.73,2.56,3.8,1.07,1.07,2.33,1.92,3.8,2.56,1.47.64,3.03.96,4.68.96Z"/>
        <path class="cls-1" d="M159.92,380.08c0-3.15.55-6.11,1.64-8.88,1.09-2.77,2.63-5.2,4.6-7.28,1.97-2.08,4.33-3.72,7.08-4.92,2.75-1.2,5.77-1.8,9.08-1.8h1.6v10.88c-1.65,0-3.21.32-4.68.96s-2.73,1.49-3.8,2.56-1.92,2.33-2.56,3.8c-.64,1.47-.96,3.03-.96,4.68v21.6h-12v-21.6Z"/>
        <path class="cls-1" d="M234.24,344.08v57.6h-11.2v-5.12c-1.44,1.97-3.25,3.53-5.44,4.68-2.19,1.15-4.56,1.72-7.12,1.72-3.25,0-6.33-.6-9.24-1.8-2.91-1.2-5.43-2.84-7.56-4.92-2.13-2.08-3.83-4.51-5.08-7.28-1.25-2.77-1.88-5.73-1.88-8.88s.63-6.11,1.88-8.88c1.25-2.77,2.95-5.2,5.08-7.28,2.13-2.08,4.64-3.72,7.52-4.92s5.95-1.8,9.2-1.8c2.29,0,4.44.39,6.44,1.16,2,.77,3.8,1.85,5.4,3.24v-17.52h12ZM198.72,380.08c0,1.65.32,3.21.96,4.68.64,1.47,1.49,2.73,2.56,3.8,1.07,1.07,2.33,1.92,3.8,2.56,1.47.64,3.03.96,4.68.96s3.21-.32,4.68-.96c1.47-.64,2.73-1.49,3.8-2.56,1.07-1.07,1.92-2.33,2.56-3.8.64-1.47.96-3.03.96-4.68s-.32-3.21-.96-4.68c-.64-1.47-1.49-2.73-2.56-3.8-1.07-1.07-2.33-1.92-3.8-2.56-1.47-.64-3.03-.96-4.68-.96s-3.21.32-4.68.96-2.73,1.49-3.8,2.56-1.92,2.33-2.56,3.8c-.64,1.47-.96,3.03-.96,4.68Z"/>
        <path class="cls-4" d="M269.04,367.92c1.97.37,3.88.97,5.72,1.8,1.84.83,3.48,1.91,4.92,3.24,1.44,1.33,2.6,2.89,3.48,4.68.88,1.79,1.32,3.83,1.32,6.12,0,2.77-.52,5.33-1.56,7.68-1.04,2.35-2.52,4.37-4.44,6.08-1.92,1.71-4.25,3.04-7,4-2.75.96-5.83,1.44-9.24,1.44-3.09,0-5.97-.55-8.64-1.64-2.67-1.09-4.97-2.57-6.92-4.44-1.95-1.87-3.47-4.03-4.56-6.48-1.09-2.45-1.64-5.04-1.64-7.76h12.48c.27,2.51,1.24,4.6,2.92,6.28,1.68,1.68,3.8,2.52,6.36,2.52,2.99,0,5.37-.67,7.16-2,1.79-1.33,2.68-3.23,2.68-5.68,0-1.23-.31-2.23-.92-3-.61-.77-1.51-1.45-2.68-2.04-1.17-.59-2.6-1.11-4.28-1.56s-3.59-.92-5.72-1.4c-2.35-.53-4.56-1.23-6.64-2.08-2.08-.85-3.91-1.89-5.48-3.12-1.57-1.23-2.81-2.64-3.72-4.24-.91-1.6-1.36-3.44-1.36-5.52,0-2.67.49-5.09,1.48-7.28.99-2.19,2.39-4.08,4.2-5.68,1.81-1.6,4.01-2.84,6.6-3.72,2.59-.88,5.48-1.32,8.68-1.32,2.88,0,5.6.45,8.16,1.36,2.56.91,4.81,2.16,6.76,3.76,1.95,1.6,3.48,3.48,4.6,5.64,1.12,2.16,1.68,4.52,1.68,7.08h-12.72c-.53-1.81-1.59-3.32-3.16-4.52-1.57-1.2-3.35-1.8-5.32-1.8-2.4,0-4.43.57-6.08,1.72-1.65,1.15-2.48,2.57-2.48,4.28,0,1.01.44,1.92,1.32,2.72s2.04,1.51,3.48,2.12c1.44.61,3.08,1.15,4.92,1.6,1.84.45,3.72.84,5.64,1.16Z"/>
        <path class="cls-4" d="M312.32,368.08c-1.65,0-3.21.32-4.68.96-1.47.64-2.73,1.49-3.8,2.56s-1.92,2.33-2.56,3.8c-.64,1.47-.96,3.03-.96,4.68s.32,3.21.96,4.68c.64,1.47,1.49,2.73,2.56,3.8,1.07,1.07,2.33,1.92,3.8,2.56,1.47.64,3.03.96,4.68.96,2.24,0,4.25-.56,6.04-1.68,1.79-1.12,3.19-2.59,4.2-4.4h12.88c-.69,2.45-1.76,4.71-3.2,6.76-1.44,2.05-3.17,3.84-5.2,5.36-2.03,1.52-4.29,2.71-6.8,3.56s-5.15,1.28-7.92,1.28c-3.31,0-6.43-.6-9.36-1.8-2.93-1.2-5.48-2.84-7.64-4.92-2.16-2.08-3.87-4.51-5.12-7.28-1.25-2.77-1.88-5.73-1.88-8.88s.63-6.11,1.88-8.88c1.25-2.77,2.96-5.2,5.12-7.28,2.16-2.08,4.71-3.72,7.64-4.92,2.93-1.2,6.05-1.8,9.36-1.8,2.83,0,5.49.44,8,1.32,2.51.88,4.79,2.08,6.84,3.6,2.05,1.52,3.81,3.33,5.28,5.44,1.47,2.11,2.52,4.41,3.16,6.92h-12.64c-1.07-1.92-2.52-3.47-4.36-4.64-1.84-1.17-3.93-1.76-6.28-1.76Z"/>
        <path class="cls-4" d="M340.48,380.08c0-3.15.55-6.11,1.64-8.88,1.09-2.77,2.63-5.2,4.6-7.28,1.97-2.08,4.33-3.72,7.08-4.92,2.75-1.2,5.77-1.8,9.08-1.8h1.6v10.88c-1.65,0-3.21.32-4.68.96-1.47.64-2.73,1.49-3.8,2.56s-1.92,2.33-2.56,3.8c-.64,1.47-.96,3.03-.96,4.68v21.6h-12v-21.6Z"/>
        <path class="cls-4" d="M376.39,340.4c.96,0,1.85.19,2.68.56.83.37,1.55.87,2.16,1.48.61.61,1.11,1.33,1.48,2.16.37.83.56,1.72.56,2.68s-.19,1.85-.56,2.68c-.37.83-.87,1.56-1.48,2.2-.61.64-1.33,1.13-2.16,1.48-.83.35-1.72.52-2.68.52-1.92,0-3.55-.67-4.88-2-1.33-1.33-2-2.96-2-4.88,0-.96.17-1.85.52-2.68.35-.83.84-1.55,1.48-2.16.64-.61,1.37-1.11,2.2-1.48.83-.37,1.72-.56,2.68-.56ZM370.39,358.48h12v43.2h-12v-43.2Z"/>
        <path class="cls-4" d="M414.87,357.2c3.31,0,6.4.6,9.28,1.8s5.39,2.84,7.52,4.92c2.13,2.08,3.83,4.51,5.08,7.28,1.25,2.77,1.88,5.73,1.88,8.88s-.63,6.11-1.88,8.88c-1.25,2.77-2.95,5.2-5.08,7.28-2.13,2.08-4.64,3.72-7.52,4.92s-5.97,1.8-9.28,1.8c-2.61,0-5.01-.6-7.2-1.8-2.19-1.2-3.97-2.81-5.36-4.84v5.36h-11.2v-57.6h12v18c1.55-1.55,3.32-2.75,5.32-3.6,2-.85,4.15-1.28,6.44-1.28ZM414.63,392.08c1.65,0,3.21-.32,4.68-.96,1.47-.64,2.73-1.49,3.8-2.56,1.07-1.07,1.92-2.33,2.56-3.8.64-1.47.96-3.03.96-4.68s-.32-3.21-.96-4.68c-.64-1.47-1.49-2.73-2.56-3.8-1.07-1.07-2.33-1.92-3.8-2.56-1.47-.64-3.03-.96-4.68-.96s-3.21.32-4.68.96c-1.47.64-2.73,1.49-3.8,2.56s-1.92,2.33-2.56,3.8c-.64,1.47-.96,3.03-.96,4.68s.32,3.21.96,4.68c.64,1.47,1.49,2.73,2.56,3.8,1.07,1.07,2.33,1.92,3.8,2.56,1.47.64,3.03.96,4.68.96Z"/>
        <path class="cls-4" d="M465.83,357.2c3.31,0,6.43.6,9.36,1.8,2.93,1.2,5.48,2.84,7.64,4.92,2.16,2.08,3.87,4.51,5.12,7.28,1.25,2.77,1.88,5.73,1.88,8.88,0,.75-.04,1.45-.12,2.12-.08.67-.17,1.35-.28,2.04h-34.88c.91,2.29,2.36,4.17,4.36,5.64,2,1.47,4.31,2.2,6.92,2.2,1.92,0,3.71-.43,5.36-1.28,1.65-.85,3.01-1.97,4.08-3.36h13.28c-.8,2.24-1.93,4.32-3.4,6.24-1.47,1.92-3.2,3.56-5.2,4.92-2,1.36-4.19,2.43-6.56,3.2-2.37.77-4.89,1.16-7.56,1.16-3.31,0-6.43-.6-9.36-1.8-2.93-1.2-5.48-2.84-7.64-4.92-2.16-2.08-3.87-4.51-5.12-7.28-1.25-2.77-1.88-5.73-1.88-8.88s.63-6.11,1.88-8.88c1.25-2.77,2.96-5.2,5.12-7.28,2.16-2.08,4.71-3.72,7.64-4.92,2.93-1.2,6.05-1.8,9.36-1.8ZM477.11,375.92c-.91-2.29-2.37-4.17-4.4-5.64-2.03-1.47-4.32-2.2-6.88-2.2s-4.92.73-6.92,2.2-3.45,3.35-4.36,5.64h22.56Z"/>
      </g>
      <circle class="cls-4" cx="122.83" cy="85.39" r="40.05"/>
      <circle class="cls-1" cx="372.19" cy="85.75" r="40.05"/>
      <circle class="cls-3" cx="247.51" cy="48.67" r="48.67"/>
      <path class="cls-4" d="M74.92,266.18c23.45-9.6,54.98-20.34,91.42-27.35v-68.88c0-2.04.1-4.08.29-6.07.38-4.09,1.18-8.1,2.32-12.01-11.32-12.6-27.79-20.54-46.12-20.54-32.42,0-59.03,24.82-61.64,56.4-.15,1.69-.22,3.4-.22,5.12v79.3c4.53-2.03,9.19-4.03,13.94-5.98Z"/>
      <path class="cls-3" d="M239.51,231.26v-68.92c0-8.28,6.73-15.02,15.01-15.02h63.58c-10.53-25.24-38.15-43.25-70.59-43.25-39.4,0-71.73,26.57-74.91,60.4-.18,1.81-.26,3.64-.26,5.49v67.76c21.04-3.75,43.62-6.2,67.17-6.45Z"/>
      <path class="cls-1" d="M387.64,186.14v72.41c11.98,4.49,22.21,8.89,30.31,12.66,5.49,2.55,10.87,5.2,16.1,7.92v-82.3c0-1.83-.07-3.63-.22-5.42-2.62-33.44-29.21-59.72-61.63-59.72-15.34,0-29.35,5.9-40.16,15.63h16.78l38.82,38.82Z"/>
      <g>
        <path class="cls-1" d="M239.51,237.26C108.26,238.68-2.04,309.76.03,316.15c.98,3.02,98.83-35.19,239.48-34.1v-44.79Z"/>
        <path class="cls-1" d="M387.64,264.93v39.31c52.76,14.71,89.31,30.88,99.59,28.28,13.93-3.53-29.22-40.73-99.59-67.59Z"/>
      </g>
      <path class="cls-2" d="M379.64,189.46v124.04c0,3.87-3.14,7.01-7.01,7.01h-118.11c-3.87,0-7.01-3.14-7.01-7.01v-151.16c0-3.88,3.14-7.02,7.01-7.02h90.98c13.33,13.33,20.81,20.81,34.14,34.14Z"/>
      <path class="cls-4" d="M277.36,199.22h38.54c1.52,0,2.75-1.24,2.75-2.75s-1.24-2.75-2.75-2.75h-38.54c-1.52,0-2.75,1.24-2.75,2.75s1.24,2.75,2.75,2.75Z"/>
      <path class="cls-4" d="M274.61,218.57c0,1.52,1.24,2.75,2.75,2.75h72.43c1.52,0,2.75-1.24,2.75-2.75s-1.24-2.75-2.75-2.75h-72.43c-1.52,0-2.75,1.24-2.75,2.75Z"/>
      <path class="cls-4" d="M274.61,240.67c0,1.52,1.24,2.75,2.75,2.75h72.43c1.52,0,2.75-1.24,2.75-2.75s-1.24-2.75-2.75-2.75h-72.43c-1.52,0-2.75,1.24-2.75,2.75Z"/>
      <path class="cls-4" d="M274.61,262.77c0,1.52,1.24,2.75,2.75,2.75h72.43c1.52,0,2.75-1.24,2.75-2.75s-1.24-2.75-2.75-2.75h-72.43c-1.52,0-2.75,1.24-2.75,2.75Z"/>
      <path class="cls-4" d="M277.36,287.63h38.54c1.52,0,2.75-1.24,2.75-2.75s-1.24-2.75-2.75-2.75h-38.54c-1.52,0-2.75,1.24-2.75,2.75s1.24,2.75,2.75,2.75Z"/>
      <path class="cls-2" d="M376.98,191.26h-27.3c-3.87,0-7-3.13-7-7v-27.3"/>
    </g>
  </g>
</svg>